<?xml version="1.0" encoding="UTF-8" standalone="no"?>
<!-- Created with Inkscape (http://www.inkscape.org/) -->

<svg
   width="127.43001mm"
   height="71.629738mm"
   viewBox="0 0 127.43001 71.629738"
   version="1.1"
   id="svg1"
   inkscape:version="1.3.2 (091e20e, 2023-11-25, custom)"
   sodipodi:docname="Mantis.svg"
   xmlns:inkscape="http://www.inkscape.org/namespaces/inkscape"
   xmlns:sodipodi="http://sodipodi.sourceforge.net/DTD/sodipodi-0.dtd"
   xmlns="http://www.w3.org/2000/svg"
   xmlns:svg="http://www.w3.org/2000/svg">
  <sodipodi:namedview
     id="namedview1"
     pagecolor="#505050"
     bordercolor="#eeeeee"
     borderopacity="1"
     inkscape:showpageshadow="0"
     inkscape:pageopacity="0"
     inkscape:pagecheckerboard="0"
     inkscape:deskcolor="#505050"
     inkscape:document-units="mm"
     inkscape:zoom="2.1718995"
     inkscape:cx="225.60896"
     inkscape:cy="150.78966"
     inkscape:window-width="2560"
     inkscape:window-height="1377"
     inkscape:window-x="1072"
     inkscape:window-y="177"
     inkscape:window-maximized="1"
     inkscape:current-layer="layer1" />
  <defs
     id="defs1" />
  <g
     inkscape:label="Layer 1"
     inkscape:groupmode="layer"
     id="layer1"
     transform="translate(-41.187519,-92.67485)">
    <path
       style="color:#000000;clip-rule:nonzero;display:inline;overflow:visible;visibility:visible;isolation:auto;mix-blend-mode:normal;color-interpolation:sRGB;color-interpolation-filters:linearRGB;solid-color:#000000;solid-opacity:1;fill:#666666;fill-opacity:1;fill-rule:evenodd;stroke:#000000;stroke-width:0.282222;stroke-linecap:butt;stroke-linejoin:miter;stroke-miterlimit:10;stroke-dasharray:none;stroke-dashoffset:0.3;stroke-opacity:1;color-rendering:auto;image-rendering:auto;shape-rendering:auto;text-rendering:auto;enable-background:accumulate"
       d="m 127.87032,139.65734 h -10.97036 v 10.08438 h 10.97036 z"
       id="path16093"
       inkscape:connector-curvature="0"
       sodipodi:nodetypes="ccccc" />
    <path
       style="fill:#808080;fill-rule:evenodd;stroke:#000000;stroke-width:0.282222px;stroke-linecap:butt;stroke-linejoin:round;stroke-opacity:1"
       d="m 116.89987,133.29438 -6e-5,6.36311 -4.17621,5.87 7e-5,-6.3631 z"
       id="path16079"
       inkscape:connector-curvature="0" />
    <path
       style="fill:#000000;fill-rule:evenodd;stroke:#000000;stroke-width:0.282222px;stroke-linecap:butt;stroke-linejoin:miter;stroke-opacity:1"
       d="m 131.14813,133.09447 -7.22459,-4.27581 6.31788,-5.13391 5.49469,5.66246 z"
       id="path11617"
       inkscape:connector-curvature="0" />
    <rect
       style="color:#000000;clip-rule:nonzero;display:inline;overflow:visible;visibility:visible;isolation:auto;mix-blend-mode:normal;color-interpolation:sRGB;color-interpolation-filters:linearRGB;solid-color:#000000;solid-opacity:1;fill:#e6e6e6;fill-opacity:1;fill-rule:evenodd;stroke:#000000;stroke-width:0.282222;stroke-linecap:butt;stroke-linejoin:miter;stroke-miterlimit:10;stroke-dasharray:none;stroke-dashoffset:0.3;stroke-opacity:1;color-rendering:auto;image-rendering:auto;shape-rendering:auto;text-rendering:auto;enable-background:accumulate"
       id="rect5484"
       width="10.97047"
       height="1.0535818"
       x="-127.87038"
       y="139.65733"
       transform="scale(-1,1)" />
    <path
       sodipodi:nodetypes="ccccc"
       inkscape:connector-curvature="0"
       id="rect5486"
       d="m 127.87032,140.71093 h -10.97036 v 10.08438 h 10.97036 z"
       style="color:#000000;clip-rule:nonzero;display:inline;overflow:visible;visibility:visible;opacity:0.8;isolation:auto;mix-blend-mode:normal;color-interpolation:sRGB;color-interpolation-filters:linearRGB;solid-color:#000000;solid-opacity:1;fill:#ffffff;fill-opacity:1;fill-rule:evenodd;stroke:#000000;stroke-width:0.282222;stroke-linecap:butt;stroke-linejoin:miter;stroke-miterlimit:10;stroke-dasharray:none;stroke-dashoffset:0.3;stroke-opacity:1;color-rendering:auto;image-rendering:auto;shape-rendering:auto;text-rendering:auto;enable-background:accumulate" />
    <path
       style="fill:#e6e6e6;fill-rule:evenodd;stroke:#000000;stroke-width:0.282222px;stroke-linecap:butt;stroke-linejoin:round;stroke-opacity:1"
       d="m 112.72367,139.13569 v 6.39167 h -1.04403 v -6.39167 z"
       id="path5503"
       inkscape:connector-curvature="0" />
    <path
       inkscape:connector-curvature="0"
       id="path5505"
       d="m 111.67971,139.16425 h 1.04405 l 4.17621,-5.87001 h -1.04405 z"
       style="fill:#b3b3b3;fill-rule:evenodd;stroke:#000000;stroke-width:0.282222px;stroke-linecap:butt;stroke-linejoin:round;stroke-opacity:1"
       sodipodi:nodetypes="ccccc" />
    <path
       inkscape:connector-curvature="0"
       id="path5507"
       d="m 116.89994,133.29424 v 6.39166 h -1.04402 v -6.39166 z"
       style="fill:#e6e6e6;fill-rule:evenodd;stroke:#000000;stroke-width:0.282222px;stroke-linecap:butt;stroke-linejoin:round;stroke-opacity:1" />
    <path
       sodipodi:nodetypes="ccccc"
       style="fill:#b3b3b3;fill-rule:evenodd;stroke:#000000;stroke-width:0.282222px;stroke-linecap:butt;stroke-linejoin:round;stroke-opacity:1"
       d="m 111.67964,145.52736 h 1.04406 l 4.1762,-5.87001 h -1.04405 z"
       id="path5509"
       inkscape:connector-curvature="0" />
    <rect
       y="149.74171"
       x="-127.87038"
       height="1.0535818"
       width="10.97047"
       id="rect5513"
       style="color:#000000;clip-rule:nonzero;display:inline;overflow:visible;visibility:visible;isolation:auto;mix-blend-mode:normal;color-interpolation:sRGB;color-interpolation-filters:linearRGB;solid-color:#000000;solid-opacity:1;fill:#e6e6e6;fill-opacity:1;fill-rule:evenodd;stroke:#000000;stroke-width:0.282222;stroke-linecap:butt;stroke-linejoin:miter;stroke-miterlimit:10;stroke-dasharray:none;stroke-dashoffset:0.3;stroke-opacity:1;color-rendering:auto;image-rendering:auto;shape-rendering:auto;text-rendering:auto;enable-background:accumulate"
       transform="scale(-1,1)" />
    <path
       inkscape:connector-curvature="0"
       id="path16077"
       d="m 115.85592,133.29425 -7e-5,6.3631 -4.17621,5.87001 7e-5,-6.36311 z"
       style="opacity:0.8;fill:#ffffff;fill-rule:evenodd;stroke:#000000;stroke-width:0.282222px;stroke-linecap:butt;stroke-linejoin:round;stroke-opacity:1" />
    <path
       style="display:inline;fill:#7f0505;fill-opacity:1;fill-rule:evenodd;stroke:#dc0000;stroke-width:1.41111;stroke-linecap:round;stroke-linejoin:miter;stroke-miterlimit:4;stroke-dasharray:none;stroke-opacity:1"
       d="M 114.12667,139.20484 92.687456,126.71391"
       id="path5579"
       inkscape:connector-curvature="0" />
    <path
       style="display:inline;fill:none;fill-rule:evenodd;stroke:#ff0000;stroke-width:1.41111;stroke-linecap:round;stroke-linejoin:miter;stroke-miterlimit:4;stroke-dasharray:none;stroke-opacity:1"
       d="M 114.12667,139.23417 95.678376,135.01754"
       id="path5589"
       inkscape:connector-curvature="0"
       inkscape:transform-center-x="38.420562"
       inkscape:transform-center-y="-8.7064079"
       sodipodi:nodetypes="cc" />
    <path
       inkscape:transform-center-y="-8.7064058"
       inkscape:transform-center-x="-38.420558"
       inkscape:connector-curvature="0"
       id="path5593"
       d="m 95.360986,135.09008 21.758634,-4.97325"
       style="display:inline;fill:none;fill-rule:evenodd;stroke:#ff0000;stroke-width:1.41111;stroke-linecap:round;stroke-linejoin:miter;stroke-miterlimit:4;stroke-dasharray:none;stroke-opacity:1" />
    <path
       inkscape:connector-curvature="0"
       style="color:#000000;clip-rule:nonzero;display:inline;overflow:visible;visibility:visible;isolation:auto;mix-blend-mode:normal;color-interpolation:sRGB;color-interpolation-filters:linearRGB;solid-color:#000000;solid-opacity:1;fill:#ffffff;fill-opacity:1;fill-rule:evenodd;stroke:none;stroke-width:0.282222;stroke-linecap:round;stroke-linejoin:round;stroke-miterlimit:4;stroke-dasharray:none;stroke-dashoffset:0.3;stroke-opacity:1;color-rendering:auto;image-rendering:auto;shape-rendering:auto;text-rendering:auto;enable-background:accumulate"
       d="m 127.05888,130.29275 c 0.33998,0.19808 0.80109,0.30935 1.28188,0.30935 0.48079,0 0.94189,-0.11127 1.28186,-0.30935 0.70795,-0.41247 0.70795,-1.08122 0,-1.49368 -0.33997,-0.19808 -0.80107,-0.30935 -1.28186,-0.30935 -0.48079,0 -0.9419,0.11127 -1.28188,0.30935 -0.33997,0.19807 -0.53096,0.46672 -0.53096,0.74684 0,0.28012 0.19099,0.54877 0.53096,0.74684 0,0 0,0 0,0"
       id="path11458" />
    <path
       inkscape:connector-curvature="0"
       id="path10881"
       d="m 126.59689,124.32624 6.99048,-4.06626"
       style="fill:none;fill-rule:evenodd;stroke:#000000;stroke-width:0.282222px;stroke-linecap:butt;stroke-linejoin:miter;stroke-opacity:1" />
    <path
       inkscape:connector-curvature="0"
       id="path10883"
       d="m 126.59907,124.3278 v 1.48471"
       style="fill:none;fill-rule:evenodd;stroke:#000000;stroke-width:0.282222px;stroke-linecap:butt;stroke-linejoin:miter;stroke-opacity:1" />
    <path
       style="color:#000000;clip-rule:nonzero;display:inline;overflow:visible;visibility:visible;isolation:auto;mix-blend-mode:normal;color-interpolation:sRGB;color-interpolation-filters:linearRGB;solid-color:#000000;solid-opacity:1;fill:#666666;fill-opacity:1;fill-rule:evenodd;stroke:#000000;stroke-width:0.282222;stroke-linecap:round;stroke-linejoin:round;stroke-miterlimit:10;stroke-dasharray:none;stroke-dashoffset:0.3;stroke-opacity:1;color-rendering:auto;image-rendering:auto;shape-rendering:auto;text-rendering:auto;enable-background:accumulate"
       d="m 130.58101,119.14929 -0.001,2.8e-4 c 0.72683,-0.0101 1.55045,0.22516 2.42308,0.73312 0.19737,0.11488 0.39194,0.24099 0.58374,0.37699 h 0.001 v 1.47693 l -4.09274,2.38263 v 1.45636 l -0.90512,0.52679 3.57941,2.14832 c -0.95293,-0.56551 -2.24319,-0.89083 -3.59165,-0.90405 -1.1673,-0.0115 -2.29512,0.21219 -3.2023,0.62694 l -1.45189,0.84506 -0.001,-0.001 -1.71969,-1.0009 c -0.21798,-0.33017 -0.42924,-0.66656 -0.6123,-1.01764 -0.15323,-0.29387 -0.29538,-0.59513 -0.40511,-0.90816 -0.0839,-0.23928 -0.19156,-0.7361 -0.19168,-0.73669 l 0.002,0.001 c 0.26754,-0.7227 0.70029,-1.25774 1.25477,-1.58065 v -5e-4 l 6.98998,-4.06863 c 0,0 0.001,-5e-4 0.001,-10e-4 0.39117,-0.22704 0.84278,-0.3487 1.3396,-0.35558 z"
       id="path10873"
       inkscape:connector-curvature="0" />
    <path
       style="fill:none;fill-rule:evenodd;stroke:#ff0000;stroke-width:1.41111;stroke-linecap:butt;stroke-linejoin:round;stroke-miterlimit:4;stroke-dasharray:none;stroke-opacity:1"
       d="m 125.0088,124.17265 3.33194,5.37326 1.64657,-2.3855"
       id="path11476"
       inkscape:connector-curvature="0"
       sodipodi:nodetypes="ccc" />
    <path
       style="fill:none;fill-rule:evenodd;stroke:#ff0000;stroke-width:1.41111;stroke-linecap:butt;stroke-linejoin:miter;stroke-miterlimit:4;stroke-dasharray:none;stroke-opacity:1"
       d="m 125.0088,124.17265 -2.73287,25.56907"
       id="path11501"
       inkscape:connector-curvature="0" />
    <path
       style="display:inline;fill:#ff6600;fill-rule:evenodd;stroke:#ff0000;stroke-width:1.41111;stroke-linecap:round;stroke-linejoin:miter;stroke-miterlimit:4;stroke-dasharray:none;stroke-opacity:1"
       d="M 144.26434,156.76366 122.82512,144.27273"
       id="path11505"
       inkscape:connector-curvature="0" />
    <path
       id="path10875"
       d="m 130.57962,119.14971 c 0.72683,-0.0101 1.55044,0.22504 2.42307,0.73299 0.19752,0.11497 0.39235,0.24135 0.58429,0.37747 l -6.98785,4.06764 v 0.001 c -0.19135,-0.13573 -0.38555,-0.26223 -0.58246,-0.37694 -0.001,-5e-4 -0.001,-5e-4 -0.002,-0.001 0,-5e-4 -10e-4,-5e-4 -0.002,-0.002 -0.87232,-0.50738 -1.69565,-0.74199 -2.42219,-0.73168 -0.49749,0.007 -0.94935,0.12944 -1.34075,0.35736 v -5e-4 l 6.98977,-4.06872 c 0,0 0.001,-5e-4 0.001,-5e-4 0.39116,-0.22705 0.84275,-0.34853 1.33955,-0.35541 z"
       style="color:#000000;clip-rule:nonzero;display:inline;overflow:visible;visibility:visible;isolation:auto;mix-blend-mode:normal;color-interpolation:sRGB;color-interpolation-filters:linearRGB;solid-color:#000000;solid-opacity:1;fill:#cccccc;fill-opacity:1;fill-rule:evenodd;stroke:#000000;stroke-width:0.282222;stroke-linecap:round;stroke-linejoin:round;stroke-miterlimit:10;stroke-dasharray:none;stroke-dashoffset:0.3;stroke-opacity:1;color-rendering:auto;image-rendering:auto;shape-rendering:auto;text-rendering:auto;enable-background:accumulate"
       inkscape:connector-curvature="0" />
    <path
       id="path10877"
       d="m 120.99276,125.15438 c 0,0 0,4.9e-4 0,4.9e-4 v 0 0 z m 0,4.9e-4 0.002,10e-4 1.368,0.79679 c 0,0 0.0785,0.36164 0.1395,0.53572 0.0798,0.22762 0.18339,0.44682 0.29484,0.6605 0.13315,0.25527 0.28656,0.49976 0.44511,0.73984 0.18576,0.28125 0.38448,0.55398 0.59205,0.81928 0.0291,0.0371 0.0589,0.0738 0.0883,0.11064 l -1.72064,-1.00155 c -0.21799,-0.33017 -0.42905,-0.66635 -0.61211,-1.01742 -0.15322,-0.29388 -0.29549,-0.59528 -0.40522,-0.90831 -0.0839,-0.23927 -0.19155,-0.73599 -0.19167,-0.73657 z"
       style="color:#000000;clip-rule:nonzero;display:inline;overflow:visible;visibility:visible;isolation:auto;mix-blend-mode:normal;color-interpolation:sRGB;color-interpolation-filters:linearRGB;solid-color:#000000;solid-opacity:1;fill:#808080;fill-opacity:1;fill-rule:evenodd;stroke:#000000;stroke-width:0.282222;stroke-linecap:round;stroke-linejoin:round;stroke-miterlimit:10;stroke-dasharray:none;stroke-dashoffset:0.3;stroke-opacity:1;color-rendering:auto;image-rendering:auto;shape-rendering:auto;text-rendering:auto;enable-background:accumulate"
       inkscape:connector-curvature="0" />
    <path
       id="path10879"
       d="m 123.59037,123.21768 c 0.72655,-0.0103 1.54988,0.22429 2.42221,0.73168 0.001,4.9e-4 0.001,9.9e-4 0.002,0.001 0.001,5e-4 0.001,10e-4 0.002,10e-4 0.19692,0.11472 0.39108,0.24131 0.58245,0.37704 v 1.4837 c -0.19142,-0.14375 -0.38715,-0.27453 -0.58623,-0.39051 -0.66571,-0.38784 -1.29397,-0.56741 -1.84826,-0.55974 -0.78186,0.0108 -1.41649,0.39425 -1.80192,1.09024 l -1.368,-0.79679 c 0.45638,-1.23283 1.39339,-1.92103 2.59565,-1.93812 z"
       style="color:#000000;clip-rule:nonzero;display:inline;overflow:visible;visibility:visible;isolation:auto;mix-blend-mode:normal;color-interpolation:sRGB;color-interpolation-filters:linearRGB;solid-color:#000000;solid-opacity:1;fill:#999999;fill-opacity:1;fill-rule:evenodd;stroke:#000000;stroke-width:0.282222;stroke-linecap:round;stroke-linejoin:round;stroke-miterlimit:10;stroke-dasharray:none;stroke-dashoffset:0.3;stroke-opacity:1;color-rendering:auto;image-rendering:auto;shape-rendering:auto;text-rendering:auto;enable-background:accumulate"
       inkscape:connector-curvature="0" />
    <path
       inkscape:connector-curvature="0"
       id="path10885"
       d="m 133.58698,121.7368 v -1.47663 l -6.98785,4.06764 v 1.48478 z"
       style="fill:#808080;fill-opacity:1;fill-rule:evenodd;stroke:#000000;stroke-width:0.282222;stroke-linecap:butt;stroke-linejoin:round;stroke-miterlimit:4;stroke-dasharray:none;stroke-opacity:1" />
    <g
       id="g11570"
       transform="matrix(-0.1392069,0,0,0.14047758,325.21411,210.00071)"
       style="stroke-width:2.01816">
      <rect
         style="color:#000000;clip-rule:nonzero;display:inline;overflow:visible;visibility:visible;opacity:1;isolation:auto;mix-blend-mode:normal;color-interpolation:sRGB;color-interpolation-filters:linearRGB;solid-color:#000000;solid-opacity:1;fill:#e6e6e6;fill-opacity:1;fill-rule:evenodd;stroke:#000000;stroke-width:2.01816;stroke-linecap:butt;stroke-linejoin:miter;stroke-miterlimit:10;stroke-dasharray:none;stroke-dashoffset:0.3;stroke-opacity:1;color-rendering:auto;image-rendering:auto;shape-rendering:auto;text-rendering:auto;enable-background:accumulate"
         id="rect11495"
         width="78.806946"
         height="7.499999"
         x="1417.6292"
         y="-467.88947" />
      <rect
         style="color:#000000;clip-rule:nonzero;display:inline;overflow:visible;visibility:visible;opacity:1;isolation:auto;mix-blend-mode:normal;color-interpolation:sRGB;color-interpolation-filters:linearRGB;solid-color:#000000;solid-opacity:1;fill:#666666;fill-opacity:1;fill-rule:evenodd;stroke:#000000;stroke-width:2.01816;stroke-linecap:butt;stroke-linejoin:miter;stroke-miterlimit:10;stroke-dasharray:none;stroke-dashoffset:0.3;stroke-opacity:1;color-rendering:auto;image-rendering:auto;shape-rendering:auto;text-rendering:auto;enable-background:accumulate"
         id="rect11497"
         width="78.807175"
         height="83.572556"
         x="1417.6292"
         y="-460.38947" />
    </g>
    <path
       style="display:inline;fill:none;fill-rule:evenodd;stroke:#ff0000;stroke-width:1.41111;stroke-linecap:butt;stroke-linejoin:miter;stroke-miterlimit:4;stroke-dasharray:none;stroke-opacity:1"
       d="m 116.89993,130.16704 14.06563,-3.21491"
       id="path11466"
       inkscape:connector-curvature="0"
       inkscape:transform-center-x="-38.42056"
       inkscape:transform-center-y="-8.7064081"
       sodipodi:nodetypes="cc" />
    <path
       inkscape:connector-curvature="0"
       id="path10887"
       d="m 133.90646,120.51581 c 2.66598,1.89068 4.7408,5.72777 4.74083,8.92163 0,0.50527 -0.0523,0.96575 -0.15029,1.37892 l -5.63104,3.27802 c -0.0713,-0.28724 -0.18902,-0.56139 -0.30551,-0.8332 -0.13274,-0.30961 -0.27699,-0.61559 -0.44781,-0.90559 -0.22514,-0.38219 -0.75699,-1.0935 -0.75699,-1.0935 -0.66877,-2.59173 -2.37615,-5.21595 -4.43703,-6.67766 v -10e-4 l 6.98784,-4.06763 z"
       style="color:#000000;clip-rule:nonzero;display:inline;overflow:visible;visibility:visible;isolation:auto;mix-blend-mode:normal;color-interpolation:sRGB;color-interpolation-filters:linearRGB;solid-color:#000000;solid-opacity:1;fill:#cccccc;fill-opacity:1;fill-rule:evenodd;stroke:#000000;stroke-width:0.282222;stroke-linecap:round;stroke-linejoin:round;stroke-miterlimit:10;stroke-dasharray:none;stroke-dashoffset:0.3;stroke-opacity:1;color-rendering:auto;image-rendering:auto;shape-rendering:auto;text-rendering:auto;enable-background:accumulate" />
    <path
       inkscape:connector-curvature="0"
       id="path10889"
       d="m 126.91862,124.58453 c 2.06011,1.4612 3.76699,4.08393 4.43627,6.67473 l -1.37124,-0.79863 c -0.57816,-1.71408 -1.714,-3.3778 -3.06503,-4.3924 z"
       style="color:#000000;clip-rule:nonzero;display:inline;overflow:visible;visibility:visible;isolation:auto;mix-blend-mode:normal;color-interpolation:sRGB;color-interpolation-filters:linearRGB;solid-color:#000000;solid-opacity:1;fill:#999999;fill-opacity:1;fill-rule:evenodd;stroke:#000000;stroke-width:0.282222;stroke-linecap:round;stroke-linejoin:round;stroke-miterlimit:10;stroke-dasharray:none;stroke-dashoffset:0.3;stroke-opacity:1;color-rendering:auto;image-rendering:auto;shape-rendering:auto;text-rendering:auto;enable-background:accumulate" />
    <path
       sodipodi:nodetypes="cccscccccsccc"
       inkscape:connector-curvature="0"
       id="path10891"
       d="m 129.98365,130.46063 1.372,0.80146 c 0,9.9e-4 0,-0.001 0,1e-5 0,0 0.53185,0.71131 0.75699,1.09351 0.17082,0.28999 0.31508,0.59597 0.44781,0.90558 0.1165,0.27181 0.23425,0.54596 0.30551,0.8332 l -1.71783,-0.99992 c 0.0277,-0.20138 -0.0223,-0.41189 -0.0608,-0.56682 -0.0517,-0.21058 -0.13807,-0.41146 -0.22346,-0.6106 -0.0965,-0.22512 -0.20152,-0.44757 -0.32578,-0.65843 -0.16376,-0.2779 -0.55055,-0.79516 -0.55055,-0.79516 l -0.004,-0.003 z"
       style="color:#000000;clip-rule:nonzero;display:inline;overflow:visible;visibility:visible;isolation:auto;mix-blend-mode:normal;color-interpolation:sRGB;color-interpolation-filters:linearRGB;solid-color:#000000;solid-opacity:1;fill:#808080;fill-opacity:1;fill-rule:evenodd;stroke:#000000;stroke-width:0.282222;stroke-linecap:round;stroke-linejoin:round;stroke-miterlimit:10;stroke-dasharray:none;stroke-dashoffset:0.3;stroke-opacity:1;color-rendering:auto;image-rendering:auto;shape-rendering:auto;text-rendering:auto;enable-background:accumulate" />
    <g
       id="g11561"
       transform="matrix(-0.1392069,0,0,0.14047758,325.21411,210.00071)"
       style="stroke-width:2.01816">
      <g
         transform="translate(-7037.2356,1099.3168)"
         id="g5565"
         style="display:inline;stroke-width:2.01816">
        <path
           inkscape:connector-curvature="0"
           id="path5567"
           d="m 8700.8977,-1613.8505 v 45.4995 h -7.4998 v -45.4995 z"
           style="fill:#e6e6e6;fill-opacity:1;fill-rule:evenodd;stroke:#000000;stroke-width:2.01816px;stroke-linecap:butt;stroke-linejoin:miter;stroke-opacity:1" />
        <path
           sodipodi:nodetypes="ccccc"
           style="fill:#cccccc;fill-opacity:1;fill-rule:evenodd;stroke:#000000;stroke-width:2.01816px;stroke-linecap:butt;stroke-linejoin:miter;stroke-opacity:1"
           d="m 8693.3979,-1613.8505 h 7.5 l -22.5,-83.5723 h -7.5 z"
           id="path5569"
           inkscape:connector-curvature="0" />
        <g
           transform="matrix(-1,0,0,1,17371.928,-0.13258254)"
           id="g5571"
           style="stroke-width:2.01816">
          <path
             sodipodi:nodetypes="ccccc"
             style="fill:#cccccc;fill-opacity:1;fill-rule:evenodd;stroke:#000000;stroke-width:2.01816px;stroke-linecap:butt;stroke-linejoin:miter;stroke-opacity:1"
             d="m 8678.5305,-1568.2184 h -7.5 l 22.5,-83.5723 h 7.5 z"
             id="path5573"
             inkscape:connector-curvature="0" />
          <path
             style="fill:#e6e6e6;fill-opacity:1;fill-rule:evenodd;stroke:#000000;stroke-width:2.01816px;stroke-linecap:butt;stroke-linejoin:miter;stroke-opacity:1"
             d="m 8693.5302,-1697.2903 v 45.4995 h 7.4998 v -45.4995 z"
             id="path5575"
             inkscape:connector-curvature="0" />
        </g>
      </g>
      <path
         inkscape:connector-curvature="0"
         id="path11555"
         d="m 1641.1622,-598.10608 -3e-4,45.4996 22.5002,83.57228 v -45.4995 z"
         style="fill:#666666;fill-rule:evenodd;stroke:#000000;stroke-width:2.01816px;stroke-linecap:butt;stroke-linejoin:miter;stroke-opacity:1" />
    </g>
    <text
       xml:space="preserve"
       style="font-style:normal;font-variant:normal;font-weight:normal;font-stretch:normal;font-size:3.38667px;line-height:0%;font-family:Helvetica-Normal;-inkscape-font-specification:'Helvetica-Normal, Normal';text-align:start;letter-spacing:0px;word-spacing:0px;writing-mode:lr-tb;text-anchor:start;fill:#000000;fill-opacity:1;stroke:none;stroke-width:0.282222px;stroke-linecap:butt;stroke-linejoin:miter;stroke-opacity:1"
       x="139.44914"
       y="123.21806"
       id="text11574"><tspan
         sodipodi:role="line"
         id="tspan11576"
         x="139.44914"
         y="123.21806"
         style="font-style:normal;font-variant:normal;font-weight:normal;font-stretch:normal;font-size:7.05556px;line-height:1.25;font-family:'Open Sans';-inkscape-font-specification:'Open Sans';stroke-width:0.282222px">Curved</tspan><tspan
         sodipodi:role="line"
         x="139.44914"
         y="132.03751"
         style="font-style:normal;font-variant:normal;font-weight:normal;font-stretch:normal;font-size:7.05556px;line-height:1.25;font-family:'Open Sans';-inkscape-font-specification:'Open Sans';stroke-width:0.282222px"
         id="tspan1">mirrors</tspan></text>
    <text
       xml:space="preserve"
       style="font-style:normal;font-variant:normal;font-weight:normal;font-stretch:normal;font-size:3.38667px;line-height:0%;font-family:Helvetica-Normal;-inkscape-font-specification:'Helvetica-Normal, Normal';text-align:start;letter-spacing:0px;word-spacing:0px;writing-mode:lr-tb;text-anchor:start;fill:#000000;fill-opacity:1;stroke:none;stroke-width:0.282222px;stroke-linecap:butt;stroke-linejoin:miter;stroke-opacity:1"
       x="87.228683"
       y="153.56674"
       id="text11578"><tspan
         sodipodi:role="line"
         id="tspan11580"
         x="87.228683"
         y="153.56674"
         style="font-style:normal;font-variant:normal;font-weight:normal;font-stretch:normal;font-size:7.05556px;line-height:1.25;font-family:'Open Sans';-inkscape-font-specification:'Open Sans';stroke-width:0.282222px">Mirrors</tspan></text>
    <path
       inkscape:connector-curvature="0"
       id="path3630"
       d="m 70.243516,124.02756 v -6.69054 a 4.3662253,1.4655075 0.192599 0 1 0,-0.0522 v -10e-4 a 4.3662253,1.4655075 0.192599 0 1 2.8314,-1.32551 4.3662253,1.4655075 0.192599 0 1 5.6198,0.8754 4.3662253,1.4655075 0.192599 0 1 0.2674,0.45011 h 0.01 v 0.0501 a 4.3662253,1.4655075 0.192599 0 1 0,0.0522 v 6.64146 z"
       style="fill:#d3d7cf;fill-opacity:1;stroke:#000000;stroke-width:0.254;stroke-linecap:round;stroke-linejoin:round;stroke-miterlimit:4;stroke-dasharray:none;stroke-dashoffset:0;stroke-opacity:1;paint-order:normal" />
    <path
       inkscape:connector-curvature="0"
       id="path3634"
       d="m 74.550716,115.8696 a 1.4655075,4.3621939 89.807178 0 0 -4.0302,0.96378 1.4655075,4.3621939 89.807178 0 0 2.5554,1.87843 l 1.5291,-1.37715 4.0855,0.50175 a 1.4655075,4.3621939 89.807178 0 0 -2.5559,-1.87843 1.4655075,4.3621939 89.807178 0 0 -1.5844,-0.0884 z"
       style="fill:#eeeeec;fill-opacity:1;stroke:#000000;stroke-width:0.254;stroke-linecap:round;stroke-linejoin:round;stroke-miterlimit:4;stroke-dasharray:none;stroke-dashoffset:0;stroke-opacity:1;paint-order:normal" />
    <path
       inkscape:connector-curvature="0"
       id="path3636"
       d="m 74.574516,116.53106 a 0.80395993,2.4979315 89.817187 0 0 -2.3079,0.52867 0.80395993,2.4979315 89.817187 0 0 1.4635,1.03042 0.80395993,2.4979315 89.817187 0 0 0.033,0.004 l 0.8428,-0.75912 2.326,0.28575 a 0.80395993,2.4979315 89.817187 0 0 0.014,-0.0103 0.80395993,2.4979315 89.817187 0 0 -1.4635,-1.03095 0.80395993,2.4979315 89.817187 0 0 -0.9069,-0.0481 z"
       style="fill:#888a85;fill-opacity:1;stroke:#000000;stroke-width:0.254;stroke-linecap:round;stroke-linejoin:round;stroke-miterlimit:4;stroke-dasharray:none;stroke-dashoffset:0;stroke-opacity:1;paint-order:normal" />
    <path
       sodipodi:nodetypes="cccccccccc"
       inkscape:connector-curvature="0"
       id="path3638"
       d="m 77.897316,117.4747 v 7.52226 l 0.7963,0.0977 v 0 c 0.1587,-0.14462 0.2489,-0.29652 0.2672,-0.45011 h 0.01 v -0.0501 -0.0522 -7.06647 z"
       style="fill:#d3d7cf;fill-opacity:1;stroke:#000000;stroke-width:0.254;stroke-linecap:round;stroke-linejoin:round;stroke-miterlimit:4;stroke-dasharray:none;stroke-dashoffset:0;stroke-opacity:1;paint-order:normal" />
    <path
       sodipodi:nodetypes="ccccccccc"
       inkscape:connector-curvature="0"
       id="path3640"
       d="m 73.074916,117.47364 h -2.8314 v 7.12102 0.0522 c 0.046,0.59655 1.1663,1.12082 2.8314,1.32548 v -0.94049 c -0.4941,-0.0614 -0.8944,-0.51408 -0.8946,-1.01185 0,-0.49794 0.4003,-0.85269 0.8946,-0.79271 z"
       style="fill:#d3d7cf;fill-opacity:1;stroke:#000000;stroke-width:0.254;stroke-linecap:round;stroke-linejoin:round;stroke-miterlimit:4;stroke-dasharray:none;stroke-dashoffset:0;stroke-opacity:1;paint-order:normal" />
    <path
       inkscape:connector-curvature="0"
       style="fill:#eeeeec;fill-opacity:1;stroke:#000000;stroke-width:0.254;stroke-linecap:round;stroke-linejoin:round;stroke-miterlimit:4;stroke-dasharray:none;stroke-dashoffset:0;stroke-opacity:1;paint-order:normal"
       d="m 74.550716,115.8696 a 1.4655075,4.3621939 89.807178 0 0 -4.0302,0.96378 1.4655075,4.3621939 89.807178 0 0 2.5554,1.87843 l 1.5291,-1.37715 4.0855,0.50175 a 1.4655075,4.3621939 89.807178 0 0 -2.5559,-1.87843 1.4655075,4.3621939 89.807178 0 0 -1.5844,-0.0884 z"
       id="path3642" />
    <path
       inkscape:connector-curvature="0"
       style="fill:#edd400;fill-opacity:1;stroke:#000000;stroke-width:0.254;stroke-linecap:round;stroke-linejoin:round;stroke-miterlimit:4;stroke-dasharray:none;stroke-dashoffset:0;stroke-opacity:1;paint-order:normal"
       d="m 74.574516,116.53106 a 0.80395993,2.4979315 89.817187 0 0 -2.3079,0.52867 0.80395993,2.4979315 89.817187 0 0 1.4635,1.03042 0.80395993,2.4979315 89.817187 0 0 0.033,0.004 l 0.8428,-0.75912 2.326,0.28575 a 0.80395993,2.4979315 89.817187 0 0 0.014,-0.0103 0.80395993,2.4979315 89.817187 0 0 -1.4635,-1.03095 0.80395993,2.4979315 89.817187 0 0 -0.9069,-0.0481 z"
       id="path3644" />
    <path
       sodipodi:nodetypes="cccccccc"
       inkscape:connector-curvature="0"
       id="path3646"
       d="m 74.605516,105.41806 c -6.5815,-8e-5 -11.9169,5.33513 -11.9171,11.9166 h 0.011 c 0.01,-0.46723 0.2613,-0.93105 0.7456,-1.37047 2.3077,-2.07769 9.1752,-3.14843 15.3391,-2.39159 4.5778,0.56267 7.6435,2.01065 7.7334,3.65249 -0.06,-6.53642 -5.3747,-11.80426 -11.9114,-11.80703 z"
       style="fill:#babdb6;fill-opacity:1;stroke:#000000;stroke-width:0.254;stroke-linecap:round;stroke-linejoin:round;stroke-miterlimit:4;stroke-dasharray:none;stroke-dashoffset:0;stroke-opacity:1;paint-order:normal" />
    <ellipse
       style="fill:#eeeeec;fill-opacity:1;stroke:#000000;stroke-width:0.271998;stroke-linecap:butt;stroke-linejoin:miter;stroke-miterlimit:4;stroke-dasharray:none;stroke-opacity:1"
       id="path20955"
       cx="105.03362"
       cy="146.5174"
       rx="2.282871"
       ry="2.062753"
       transform="matrix(0.94848202,-0.31683097,-0.18793027,0.98218237,0,0)" />
    <path
       sodipodi:nodetypes="ccccccccccccc"
       inkscape:connector-curvature="0"
       id="path3654"
       d="m 73.731716,122.12039 v 0.51263 l -0.6553,0.59428 c -0.051,-0.006 -0.1017,-0.008 -0.1519,-0.006 -0.4297,0.022 -0.7436,0.3587 -0.7436,0.79788 0,0.49829 0.4009,0.95149 0.8955,1.01235 v 0 l 0.8956,-0.81238 0.634,-0.57515 v -0.58137 -0.84127 c -0.1492,0 -0.2973,-0.007 -0.4371,-0.0217 -0.1638,-0.0172 -0.3127,-0.0445 -0.4372,-0.0796 z"
       style="fill:#eeeeec;fill-opacity:1;stroke:#000000;stroke-width:0.254;stroke-linecap:round;stroke-linejoin:round;stroke-miterlimit:4;stroke-dasharray:none;stroke-dashoffset:0;stroke-opacity:1;paint-order:normal" />
    <path
       id="path22554-6"
       style="fill:#eeeeec;fill-opacity:1;stroke:#000000;stroke-width:0.254;stroke-linecap:round;stroke-linejoin:round;stroke-miterlimit:4;stroke-dasharray:none;stroke-dashoffset:0;stroke-opacity:1;paint-order:normal"
       d="m 74.187316,120.80399 0.1535,1.04386 a 0.9558766,0.84570048 48.472604 0 0 -0.631,0.78446 0.9558766,0.84570048 48.472604 0 0 0.8956,1.01235 0.9558766,0.84570048 48.472604 0 0 0.896,-0.79221 0.9558766,0.84570048 48.472604 0 0 -0.1958,-0.58704 v -1.44076 z" />
    <path
       sodipodi:nodetypes="ccccccc"
       inkscape:connector-curvature="0"
       id="path3674"
       d="m 73.728616,118.08998 0.8758,-0.75541 2.3257,0.28562 0.013,4.0289 -2.3393,-0.27544 -0.8429,0.75896 z"
       style="fill:#edd400;fill-opacity:1;stroke:#000000;stroke-width:0.254;stroke-linecap:butt;stroke-linejoin:round;stroke-miterlimit:4;stroke-dasharray:none;stroke-opacity:1" />
    <path
       style="fill:none;stroke:#000000;stroke-width:0.132292;stroke-linecap:butt;stroke-linejoin:miter;stroke-miterlimit:4;stroke-dasharray:none;stroke-opacity:1"
       d="m 74.605916,117.33503 v 4.03887"
       id="path3766" />
    <path
       inkscape:connector-curvature="0"
       id="path3682"
       d="m 74.605516,106.08986 v 1.49603"
       style="fill:#eeeeec;stroke:#000000;stroke-width:0.264583px;stroke-linecap:butt;stroke-linejoin:miter;stroke-opacity:1" />
    <path
       id="path3684"
       style="fill:#eeeeec;fill-opacity:1;stroke:#000000;stroke-width:0.254;stroke-linecap:butt;stroke-linejoin:round;stroke-miterlimit:4;stroke-dasharray:none;stroke-opacity:1"
       d="m 76.931816,117.62073 v 4.06382 l -1.6262,-0.21754 v 0.7984 a 0.9558766,0.84570048 48.472604 0 1 0.1958,0.58704 0.9558766,0.84570048 48.472604 0 1 -0.8903,0.79271 v 0.92554 l 4.0701,0.53692 v -7.26056 z" />
    <path
       style="fill:#eeeeec;fill-opacity:1;stroke:#000000;stroke-width:0.254;stroke-linecap:round;stroke-linejoin:round;stroke-miterlimit:4;stroke-dasharray:none;stroke-opacity:1"
       d="m 74.605816,123.69063 -1.5309,1.37639 v 0.90532 l 1.5309,-1.40996 z"
       id="path3761"
       sodipodi:nodetypes="ccccc" />
    <path
       id="path3686"
       style="fill:#eeeeec;fill-opacity:1;stroke:#000000;stroke-width:0.254;stroke-linecap:round;stroke-linejoin:round;stroke-miterlimit:4;stroke-dasharray:none;stroke-opacity:1"
       d="m 73.714516,118.12306 c -0.2179,0.20722 -0.4358,0.41445 -0.6537,0.62167 0,1.49362 0,2.98724 0,4.48086 0.4316,-0.38401 0.8508,-0.77411 1.2801,-1.16049 0,-0.15106 0,-0.30213 0,-0.45319 -0.2078,0.17707 -0.4155,0.35415 -0.6233,0.53122 -0.001,-1.34002 0,-2.68005 0,-4.02007 z" />
    <path
       id="path3817"
       style="fill:#eeeeec;fill-opacity:1;stroke:#000000;stroke-width:0.254;stroke-linecap:round;stroke-linejoin:round;stroke-miterlimit:4;stroke-dasharray:none;stroke-dashoffset:0;stroke-opacity:1;paint-order:normal"
       d="m 72.282516,123.9474 c -0.3158,-0.0468 -0.6556,0.1118 -0.8012,0.40016 -0.1934,0.36423 -0.073,0.83326 0.2151,1.11196 0.157,0.1569 0.3648,0.26527 0.5861,0.29211 0.3669,-0.3328 0.7337,-0.6657 1.1007,-0.99841"
       sodipodi:nodetypes="ccccc" />
    <path
       style="fill:none;stroke:#4e9a06;stroke-width:0.529;stroke-linecap:butt;stroke-linejoin:miter;stroke-miterlimit:4;stroke-dasharray:none;stroke-opacity:1"
       d="m 81.481516,126.57481 v -9.28428 c 0,0 -0.1401,-2.90215 -3.438,-2.90215 -3.2979,0 -3.438,2.90215 -3.438,2.90215 v 4.93083 c 0,0 -0.01,0.14543 -0.1669,0.38359 -0.157,0.23816 -0.3359,0.37946 -0.3359,0.37946 l -5.6711,4.82923"
       id="path3768"
       sodipodi:nodetypes="cczcczcc" />
    <ellipse
       transform="matrix(0.94851884,-0.3167207,-0.18800043,0.98216895,0,0)"
       ry="1.518399"
       rx="1.6809906"
       cy="146.50934"
       cx="105.03864"
       id="ellipse20957"
       style="fill:#ffffff;fill-opacity:1;stroke:#000000;stroke-width:0.271994;stroke-linecap:butt;stroke-linejoin:miter;stroke-miterlimit:4;stroke-dasharray:none;stroke-opacity:1" />
    <path
       inkscape:transform-center-y="-2.3656236"
       inkscape:transform-center-x="-4.1178722"
       inkscape:connector-curvature="0"
       id="path3650"
       d="m 88.609316,109.26915 -14.0034,8.06577 -2.0753,-7.88138"
       style="fill:none;stroke:#ef2929;stroke-width:0.529;stroke-linecap:round;stroke-linejoin:round;stroke-miterlimit:4;stroke-dasharray:none;stroke-opacity:1"
       sodipodi:nodetypes="ccc" />
    <path
       sodipodi:nodetypes="ccccccc"
       inkscape:connector-curvature="0"
       id="path3678"
       d="m 74.605716,106.08975 c -2.3075,2.07801 -4.1781,8.79671 -4.1781,15.00685 l 0.553,-0.50025 c -2e-4,-5.38364 1.6228,-11.20846 3.6251,-13.01057 5.3489,0.65606 9.6851,5.55265 9.6852,10.93679 l 1.4759,0.18243 c 0,-6.21038 -4.997,-11.85846 -11.1611,-12.61525 z"
       style="fill:#eeeeec;fill-opacity:1;stroke:#000000;stroke-width:0.254;stroke-linecap:round;stroke-linejoin:round;stroke-miterlimit:4;stroke-dasharray:none;stroke-dashoffset:0;stroke-opacity:1;paint-order:normal" />
    <path
       inkscape:connector-curvature="0"
       id="path3648"
       d="m 74.605516,105.41806 a 11.916964,11.916964 0 0 0 -11.9171,11.9166 h 0.011 a 4.0037581,11.917489 89.807178 0 0 7.7281,3.76203 3.9348315,11.940424 7.1608853 0 1 4.1781,-15.00683 11.910295,10.537342 48.500036 0 1 11.1611,12.61523 4.0037581,11.917489 89.807178 0 0 0.7462,-1.37043 h 0.01 a 11.916964,11.916964 0 0 0 -11.9171,-11.9166 z"
       style="fill:#d3d7cf;fill-opacity:1;stroke:#000000;stroke-width:0.254;stroke-linecap:round;stroke-linejoin:round;stroke-miterlimit:4;stroke-dasharray:none;stroke-dashoffset:0;stroke-opacity:1;paint-order:normal" />
    <path
       id="path3825"
       style="fill:#d3d7cf;fill-opacity:1;stroke:#000000;stroke-width:0.254;stroke-linecap:butt;stroke-linejoin:round;stroke-miterlimit:4;stroke-dasharray:none;stroke-opacity:1"
       d="m 72.876416,123.22147 c -0.1838,0.0173 -0.3611,0.0979 -0.4904,0.23048 l -0.781,0.72318 c 0.1724,-0.17677 0.4352,-0.25627 0.6797,-0.2214 0.2587,-0.2427 0.5174,-0.48541 0.7761,-0.72814 -0.061,-0.009 -0.1232,-0.01 -0.1844,-0.004 z"
       sodipodi:nodetypes="sccccss" />
    <path
       style="fill:#4e9a06;fill-opacity:1;stroke:none;stroke-width:0.264583px;stroke-linecap:round;stroke-linejoin:miter;stroke-opacity:1"
       d="m 70.076416,127.8099 -3.0967,1.24015 0.2296,-1.59238 z"
       id="path11208" />
    <path
       sodipodi:nodetypes="cccc"
       d="m 80.318916,123.20596 h 2.3252 l -1.1626,-2.54658 z"
       style="fill:#4e9a06;fill-opacity:1;stroke:none;stroke-width:0.254;stroke-linecap:round;stroke-linejoin:round;stroke-miterlimit:4;stroke-dasharray:none;stroke-opacity:1"
       id="path11216" />
    <text
       xml:space="preserve"
       style="font-size:7.05556px;line-height:0.25;font-family:'Linux Biolinum';-inkscape-font-specification:'Linux Biolinum';letter-spacing:0px;word-spacing:0px;stroke-width:0.264583"
       x="58.615627"
       y="102.97611"
       id="text21146"><tspan
         sodipodi:role="line"
         id="tspan21144"
         x="58.615627"
         y="102.97611"
         style="font-style:normal;font-variant:normal;font-weight:normal;font-stretch:normal;font-size:7.05556px;font-family:'Open Sans';-inkscape-font-specification:'Open Sans';stroke-width:0.264583">Cut projection</tspan></text>
    <path
       style="opacity:0.5;fill:none;stroke:#000000;stroke-width:0.765;stroke-linecap:round;stroke-linejoin:miter;stroke-dasharray:3.06, 2.295;stroke-dashoffset:0;stroke-opacity:1"
       d="M 127.05888,128.79907 86.644516,112.92061"
       id="path1" />
    <path
       style="opacity:0.5;fill:none;stroke:#000000;stroke-width:0.765;stroke-linecap:round;stroke-linejoin:miter;stroke-dasharray:3.06, 2.295;stroke-dashoffset:0;stroke-opacity:1"
       d="M 128.34076,130.6021 72.947916,128.25386"
       id="path2" />
    <text
       xml:space="preserve"
       style="font-style:normal;font-variant:normal;font-weight:normal;font-stretch:normal;font-size:3.38667px;line-height:0%;font-family:Helvetica-Normal;-inkscape-font-specification:'Helvetica-Normal, Normal';text-align:start;letter-spacing:0px;word-spacing:0px;writing-mode:lr-tb;text-anchor:start;fill:#4e9a06;fill-opacity:1;stroke:none;stroke-width:0.282222px;stroke-linecap:butt;stroke-linejoin:miter;stroke-opacity:1"
       x="45.970089"
       y="136.79002"
       id="text2"><tspan
         sodipodi:role="line"
         id="tspan2"
         x="45.970089"
         y="136.79002"
         style="font-style:normal;font-variant:normal;font-weight:normal;font-stretch:normal;font-size:7.05556px;line-height:1.25;font-family:'Open Sans';-inkscape-font-specification:'Open Sans';fill:#4e9a06;fill-opacity:1;stroke-width:0.282222px">Gas flow</tspan></text>
  </g>
</svg>
